<svg width="17" height="17" viewBox="0 0 17 17" fill="none" xmlns="http://www.w3.org/2000/svg">
<path d="M6.375 4.95831H7.79167V8.49998H11.3333V9.91665H6.375V4.95831Z" fill="white"/>
<path fill-rule="evenodd" clip-rule="evenodd" d="M15.5833 8.49999C15.5833 12.4121 12.4121 15.5833 8.49999 15.5833C4.58787 15.5833 1.41666 12.4121 1.41666 8.49999C1.41666 4.58787 4.58787 1.41666 8.49999 1.41666C12.4121 1.41666 15.5833 4.58787 15.5833 8.49999ZM14.1667 8.49999C14.1667 10.0029 13.5696 11.4442 12.5069 12.5069C11.4442 13.5696 10.0029 14.1667 8.49999 14.1667C6.9971 14.1667 5.55576 13.5696 4.49305 12.5069C3.43035 11.4442 2.83332 10.0029 2.83332 8.49999C2.83332 6.9971 3.43035 5.55576 4.49305 4.49305C5.55576 3.43035 6.9971 2.83332 8.49999 2.83332C10.0029 2.83332 11.4442 3.43035 12.5069 4.49305C13.5696 5.55576 14.1667 6.9971 14.1667 8.49999V8.49999Z" fill="white"/>
</svg>
